<?xml version="1.0" encoding="UTF-8"?>
<svg width="16px" height="13px" viewBox="0 0 16 13" version="1.1" xmlns="http://www.w3.org/2000/svg" xmlns:xlink="http://www.w3.org/1999/xlink">
    <!-- Generator: Sketch 51.1 (57501) - http://www.bohemiancoding.com/sketch -->
    <title>💎 Left icon</title>
    <desc>Created with Sketch.</desc>
    <defs>
        <path d="M20,10.0535714 L20,17.1428571 C20,17.5357163 19.8601204,17.8720224 19.5803571,18.1517857 C19.3005938,18.431549 18.9642877,18.5714286 18.5714286,18.5714286 L5.42857143,18.5714286 C5.03571232,18.5714286 4.69940616,18.431549 4.41964286,18.1517857 C4.13987955,17.8720224 4,17.5357163 4,17.1428571 L4,10.0535714 C4.26190607,10.3452396 4.5624983,10.6041655 4.90178571,10.8303571 C7.05655839,12.2946502 8.53571027,13.3214256 9.33928571,13.9107143 C9.67857312,14.1607155 9.95386799,14.3556541 10.1651786,14.4955357 C10.3764892,14.6354174 10.6577363,14.7782731 11.0089286,14.9241071 C11.3601208,15.0699412 11.6874985,15.1428571 11.9910714,15.1428571 L12.0089286,15.1428571 C12.3125015,15.1428571 12.6398792,15.0699412 12.9910714,14.9241071 C13.3422637,14.7782731 13.6235108,14.6354174 13.8348214,14.4955357 C14.046132,14.3556541 14.3214269,14.1607155 14.6607143,13.9107143 C15.6726241,13.1785678 17.1547521,12.1517923 19.1071429,10.8303571 C19.4464303,10.5982131 19.7440463,10.3392871 20,10.0535714 Z M20,7.42857143 C20,7.89881187 19.8541681,8.34821214 19.5625,8.77678571 C19.2708319,9.20535929 18.9077403,9.57142705 18.4732143,9.875 C16.2351079,11.4285792 14.8422646,12.3958314 14.2946429,12.7767857 C14.2351187,12.8184526 14.1086319,12.9092255 13.9151786,13.0491071 C13.7217252,13.1889888 13.5610125,13.3020829 13.4330357,13.3883929 C13.3050589,13.4747028 13.1502985,13.571428 12.96875,13.6785714 C12.7872015,13.7857148 12.6160722,13.8660712 12.4553571,13.9196429 C12.2946421,13.9732146 12.145834,14 12.0089286,14 L11.9910714,14 C11.854166,14 11.7053579,13.9732146 11.5446429,13.9196429 C11.3839278,13.8660712 11.2127985,13.7857148 11.03125,13.6785714 C10.8497015,13.571428 10.6949411,13.4747028 10.5669643,13.3883929 C10.4389875,13.3020829 10.2782748,13.1889888 10.0848214,13.0491071 C9.89136808,12.9092255 9.76488125,12.8184526 9.70535714,12.7767857 C9.16368777,12.3958314 8.38393366,11.8526821 7.36607143,11.1473214 C6.3482092,10.4419608 5.73809625,10.0178579 5.53571429,9.875 C5.16666482,9.62499875 4.81845402,9.28125219 4.49107143,8.84375 C4.16368884,8.40624781 4,8.00000187 4,7.625 C4,7.16071196 4.12351067,6.77381107 4.37053571,6.46428571 C4.61756076,6.15476036 4.9702358,6 5.42857143,6 L18.5714286,6 C18.9583353,6 19.2931533,6.13987955 19.5758929,6.41964286 C19.8586324,6.69940616 20,7.03571232 20,7.42857143 Z" id="path-1"></path>
    </defs>
    <g id="Page-1" stroke="none" stroke-width="1" fill="none" fill-rule="evenodd">
        <g id="Programs-template" transform="translate(-776.000000, -1768.000000)">
            <g id="Program-details-initial---expanded" transform="translate(741.000000, 354.000000)">
                <g id="Group" transform="translate(16.000000, 1320.000000)">
                    <g id="System-icon/email" transform="translate(15.000000, 88.000000)">
                        <mask id="mask-2" fill="white">
                            <use xlink:href="#path-1"></use>
                        </mask>
                        <use id="" fill="#006DFF" fill-rule="evenodd" xlink:href="#path-1"></use>
                        <g id="Color/Castlight/Primary" mask="url(#mask-2)" fill="#006DFF" fill-rule="evenodd">
                            <rect id="Rectangle" x="0" y="0" width="24" height="24"></rect>
                        </g>
                    </g>
                </g>
            </g>
        </g>
    </g>
</svg>