<?xml version="1.0" encoding="UTF-8"?>
<svg width="13px" height="13px" viewBox="0 0 13 13" version="1.1" xmlns="http://www.w3.org/2000/svg" xmlns:xlink="http://www.w3.org/1999/xlink">
    <!-- Generator: Sketch 51.1 (57501) - http://www.bohemiancoding.com/sketch -->
    <title>💎 Left icon</title>
    <desc>Created with Sketch.</desc>
    <defs>
        <path d="M18.5714286,15.9285714 C18.5714286,16.0892865 18.541667,16.2991058 18.4821429,16.5580357 C18.4226187,16.8169656 18.3601194,17.0208326 18.2946429,17.1696429 C18.1696422,17.4672634 17.8065506,17.7827364 17.2053571,18.1160714 C16.6458305,18.4196444 16.0922646,18.5714286 15.5446429,18.5714286 C15.3839278,18.5714286 15.2261912,18.561012 15.0714286,18.5401786 C14.9166659,18.5193451 14.7455367,18.4821431 14.5580357,18.4285714 C14.3705348,18.3749997 14.2306552,18.3318454 14.1383929,18.2991071 C14.0461305,18.2663689 13.8809536,18.2053576 13.6428571,18.1160714 C13.4047607,18.0267853 13.2589288,17.9732144 13.2053571,17.9553571 C12.6220209,17.7470228 12.1011928,17.5000014 11.6428571,17.2142857 C10.886901,16.7440453 10.1011946,16.1011946 9.28571429,15.2857143 C8.47023402,14.470234 7.8273833,13.6845276 7.35714286,12.9285714 C7.07142714,12.4702358 6.8244058,11.9494077 6.61607143,11.3660714 C6.5982142,11.3124997 6.5446433,11.1666679 6.45535714,10.9285714 C6.36607098,10.690475 6.30505969,10.5252981 6.27232143,10.4330357 C6.23958317,10.3407733 6.19642884,10.2008938 6.14285714,10.0133929 C6.08928545,9.82589192 6.05208344,9.65476268 6.03125,9.5 C6.01041656,9.34523732 6,9.1875008 6,9.02678571 C6,8.47916393 6.1517842,7.92559804 6.45535714,7.36607143 C6.78869214,6.76487795 7.10416518,6.40178634 7.40178571,6.27678571 C7.55059598,6.2113092 7.75446299,6.14880982 8.01339286,6.08928571 C8.27232272,6.02976161 8.48214205,6 8.64285714,6 C8.72619089,6 8.78869027,6.00892848 8.83035714,6.02678571 C8.93750054,6.06250018 9.09523705,6.28868839 9.30357143,6.70535714 C9.36904795,6.81845295 9.45833277,6.97916563 9.57142857,7.1875 C9.68452438,7.39583437 9.78869,7.58482058 9.88392857,7.75446429 C9.97916714,7.92410799 10.0714281,8.08333259 10.1607143,8.23214286 C10.1785715,8.2559525 10.2306543,8.33035652 10.3169643,8.45535714 C10.4032742,8.58035777 10.4672617,8.68601147 10.5089286,8.77232143 C10.5505954,8.85863138 10.5714286,8.94345196 10.5714286,9.02678571 C10.5714286,9.14583393 10.486608,9.29464196 10.3169643,9.47321429 C10.1473206,9.65178661 9.96279862,9.81547545 9.76339286,9.96428571 C9.5639871,10.113096 9.37946513,10.2708325 9.20982143,10.4375 C9.04017772,10.6041675 8.95535714,10.7410709 8.95535714,10.8482143 C8.95535714,10.901786 8.97023795,10.9687496 9,11.0491071 C9.02976205,11.1294647 9.05505942,11.190476 9.07589286,11.2321429 C9.09672629,11.2738097 9.13839254,11.3452376 9.20089286,11.4464286 C9.26339317,11.5476196 9.29761902,11.6041666 9.30357143,11.6160714 C9.75595464,12.4315517 10.2738066,13.1309495 10.8571429,13.7142857 C11.4404791,14.297622 12.1398769,14.8154739 12.9553571,15.2678571 C12.967262,15.2738096 13.023809,15.3080354 13.125,15.3705357 C13.226191,15.433036 13.2976188,15.4747023 13.3392857,15.4955357 C13.3809526,15.5163692 13.4419639,15.5416665 13.5223214,15.5714286 C13.602679,15.6011906 13.6696426,15.6160714 13.7232143,15.6160714 C13.8303577,15.6160714 13.9672611,15.5312508 14.1339286,15.3616071 C14.3005961,15.1919634 14.4583326,15.0074415 14.6071429,14.8080357 C14.7559531,14.60863 14.919642,14.424108 15.0982143,14.2544643 C15.2767866,14.0848206 15.4255946,14 15.5446429,14 C15.6279766,14 15.7127972,14.0208331 15.7991071,14.0625 C15.8854171,14.1041669 15.9910708,14.1681543 16.1160714,14.2544643 C16.2410721,14.3407742 16.3154761,14.3928571 16.3392857,14.4107143 C16.488096,14.5000004 16.6473206,14.5922614 16.8169643,14.6875 C16.986608,14.7827386 17.1755942,14.8869042 17.3839286,15 C17.5922629,15.1130958 17.7529756,15.2023806 17.8660714,15.2678571 C18.2827402,15.4761915 18.5089284,15.633928 18.5446429,15.7410714 C18.5625001,15.7827383 18.5714286,15.8452377 18.5714286,15.9285714 Z" id="path-1"></path>
    </defs>
    <g id="Page-1" stroke="none" stroke-width="1" fill="none" fill-rule="evenodd">
        <g id="Programs-template" transform="translate(-778.000000, -1703.000000)">
            <g id="Program-details-initial---expanded" transform="translate(741.000000, 354.000000)">
                <g id="Group" transform="translate(16.000000, 1320.000000)">
                    <g id="System-icon/phone" transform="translate(15.000000, 23.000000)">
                        <mask id="mask-2" fill="white">
                            <use xlink:href="#path-1"></use>
                        </mask>
                        <use id="" fill="#006DFF" fill-rule="evenodd" xlink:href="#path-1"></use>
                        <g id="Color/Castlight/Primary" mask="url(#mask-2)" fill="#006DFF" fill-rule="evenodd">
                            <rect id="Rectangle" x="0" y="0" width="24" height="24"></rect>
                        </g>
                    </g>
                </g>
            </g>
        </g>
    </g>
</svg>