<?xml version="1.0" encoding="UTF-8"?>
<svg width="16px" height="16px" viewBox="0 0 16 16" version="1.1" xmlns="http://www.w3.org/2000/svg" xmlns:xlink="http://www.w3.org/1999/xlink">
    <!-- Generator: Sketch 51.1 (57501) - http://www.bohemiancoding.com/sketch -->
    <title>💎 Left icon</title>
    <desc>Created with Sketch.</desc>
    <defs>
        <path d="M15.488,13.6 C15.552,13.072 15.6,12.544 15.6,12 C15.6,11.456 15.552,10.928 15.488,10.4 L18.192,10.4 C18.32,10.912 18.4,11.448 18.4,12 C18.4,12.552 18.32,13.088 18.192,13.6 L15.488,13.6 Z M14.072,18.048 C14.552,17.16 14.92,16.2 15.176,15.2 L17.536,15.2 C16.768,16.52 15.544,17.544 14.072,18.048 L14.072,18.048 Z M13.872,13.6 L10.128,13.6 C10.048,13.072 10,12.544 10,12 C10,11.456 10.048,10.92 10.128,10.4 L13.872,10.4 C13.944,10.92 14,11.456 14,12 C14,12.544 13.944,13.072 13.872,13.6 L13.872,13.6 Z M12,18.368 C11.336,17.408 10.8,16.344 10.472,15.2 L13.528,15.2 C13.2,16.344 12.664,17.408 12,18.368 L12,18.368 Z M8.8,8.8 L6.464,8.8 C7.224,7.472 8.456,6.448 9.92,5.952 C9.44,6.84 9.08,7.8 8.8,8.8 L8.8,8.8 Z M6.464,15.2 L8.8,15.2 C9.08,16.2 9.44,17.16 9.92,18.048 C8.456,17.544 7.224,16.52 6.464,15.2 L6.464,15.2 Z M5.808,13.6 C5.68,13.088 5.6,12.552 5.6,12 C5.6,11.448 5.68,10.912 5.808,10.4 L8.512,10.4 C8.448,10.928 8.4,11.456 8.4,12 C8.4,12.544 8.448,13.072 8.512,13.6 L5.808,13.6 Z M12,5.624 C12.664,6.584 13.2,7.656 13.528,8.8 L10.472,8.8 C10.8,7.656 11.336,6.584 12,5.624 L12,5.624 Z M17.536,8.8 L15.176,8.8 C14.92,7.8 14.552,6.84 14.072,5.952 C15.544,6.456 16.768,7.472 17.536,8.8 L17.536,8.8 Z M12,4 C7.576,4 4,7.6 4,12 C4,14.1217319 4.84285472,16.1565632 6.34314575,17.6568542 C7.84343678,19.1571453 9.87826808,20 12,20 C16.418278,20 20,16.418278 20,12 C20,9.87826808 19.1571453,7.84343678 17.6568542,6.34314575 C16.1565632,4.84285472 14.1217319,4 12,4 L12,4 Z" id="path-1"></path>
    </defs>
    <g id="Page-1" stroke="none" stroke-width="1" fill="none" fill-rule="evenodd">
        <g id="Programs-template" transform="translate(-776.000000, -1832.000000)">
            <g id="Program-details-initial---expanded" transform="translate(741.000000, 354.000000)">
                <g id="Group" transform="translate(16.000000, 1320.000000)">
                    <g id="Component/List/Small-icon+Text+Subtext+link" transform="translate(0.000000, 133.000000)">
                        <g id="System-icon/web" transform="translate(15.000000, 21.000000)">
                            <mask id="mask-2" fill="white">
                                <use xlink:href="#path-1"></use>
                            </mask>
                            <g id="Shape"></g>
                            <g id="Color/Castlight/Primary" mask="url(#mask-2)" fill="#006DFF" fill-rule="evenodd">
                                <rect id="Rectangle" x="0" y="0" width="24" height="24"></rect>
                            </g>
                        </g>
                    </g>
                </g>
            </g>
        </g>
    </g>
</svg>